<svg xmlns="http://www.w3.org/2000/svg" xmlns:cc="http://web.resource.org/cc/" xmlns:svg="http://www.w3.org/2000/svg" xmlns:xlink="http://www.w3.org/1999/xlink" id="svg2" width="48" height="48" version="1.0"><defs id="defs4"><linearGradient id="linearGradient2363"><stop style="stop-color:#ff2e69;stop-opacity:1" id="stop2367" offset="0"/><stop id="stop3988" offset=".504" style="stop-color:#f9ffb1;stop-opacity:1"/><stop id="stop2369" offset="1" style="stop-color:#ff2e69;stop-opacity:1"/></linearGradient><linearGradient id="linearGradient2275"><stop style="stop-color:#ffe999;stop-opacity:1" id="stop2277" offset="0"/><stop id="stop2283" offset="1" style="stop-color:#e25b7a;stop-opacity:1"/><stop style="stop-color:#2ed8ff;stop-opacity:0" id="stop2279" offset="1"/></linearGradient><linearGradient id="linearGradient2219"><stop style="stop-color:#2e2eff;stop-opacity:1" id="stop2221" offset="0"/><stop style="stop-color:#2e2eff;stop-opacity:.75789475" id="stop2303" offset=".826"/><stop style="stop-color:#2e2eff;stop-opacity:0" id="stop2223" offset="1"/></linearGradient><radialGradient id="radialGradient2377" cx="130.418" cy="68.151" r="15.391" fx="130.418" fy="68.151" gradientTransform="translate(0.480863,0.497137)" gradientUnits="userSpaceOnUse" xlink:href="#linearGradient2219"/></defs><metadata id="metadata7"/><g id="layer3"><path style="opacity:1;fill:none;fill-opacity:1;fill-rule:nonzero;stroke:#aaf;stroke-width:1.85289347;stroke-linecap:round;stroke-linejoin:round;stroke-miterlimit:4;stroke-dasharray:none;stroke-opacity:1;display:inline" id="path2409" d="M 140.76803,79.541865 A 15.390964,15.390964 0 0 1 119.72479,79.220035" transform="matrix(1.381901,0,0,1.317353,-156.3313,-80.40712)"/><path style="opacity:1;fill:none;fill-opacity:1;fill-rule:nonzero;stroke:#aaf;stroke-width:1.57907322;stroke-linecap:round;stroke-linejoin:round;stroke-miterlimit:4;stroke-dasharray:none;stroke-opacity:1;display:inline" id="path2413" d="M 140.15994,80.066074 A 15.390964,15.390964 0 0 1 120.67425,80.064321" transform="matrix(1.869625,0,0,1.782295,-219.9394,-112.0932)"/><path style="opacity:1;fill:none;fill-opacity:1;fill-rule:nonzero;stroke:#aaf;stroke-width:1.37966251;stroke-linecap:round;stroke-linejoin:round;stroke-miterlimit:4;stroke-dasharray:none;stroke-opacity:1;display:inline" id="path2415" d="M 139.50509,80.572689 A 15.390964,15.390964 0 0 1 121.38797,80.613992" transform="matrix(2.434941,0,0,2.321205,-293.6669,-148.8202)"/></g><g id="layer2" style="display:inline"><path style="fill:#000;fill-opacity:1;stroke:none;stroke-width:3.75;stroke-linecap:round;stroke-linejoin:round;stroke-miterlimit:4;stroke-dasharray:none;stroke-opacity:1;display:inline" id="path2406" d="M 8.875,-0.34375 C 7.3820938,-0.077591424 6.2743943,1.1930122 6.1875,2.6875 C 6.1875,2.6875 5.6889937,8.4276125 8.625,14.53125 C 11.111993,19.701437 15.511924,23.286935 20.90625,24.03125 C 20.913047,24.655654 20.932348,25.252824 20.9375,25.90625 C 20.967958,29.769043 20.832536,34.027252 20.5625,35.625 C 18.991474,39.975604 14.63073,40.886844 14.53125,40.90625 L 14.53125,40.9375 C 13.810312,41.050652 13.178458,41.37041 12.6875,41.875 C 12.471435,42.104632 12.306634,42.339404 12.15625,42.625 C 12.145669,42.635251 12.135251,42.645669 12.125,42.65625 C 12.134338,42.637757 12.064008,42.719146 11.96875,42.96875 C 11.655121,43.790541 11.717905,44.651525 12.03125,45.40625 C 12.031133,45.416666 12.031133,45.427084 12.03125,45.4375 C 12.13392,45.673506 12.212045,45.796507 12.28125,45.90625 C 12.291666,45.906367 12.302084,45.906367 12.3125,45.90625 C 12.35356,45.968967 12.405021,46.100541 12.5625,46.28125 C 12.726472,46.469404 12.752213,46.477748 12.65625,46.375 C 12.666501,46.385581 12.676919,46.395999 12.6875,46.40625 C 12.884686,46.610243 13.077841,46.741392 13.28125,46.875 C 13.281133,46.885416 13.281133,46.895834 13.28125,46.90625 C 13.373248,46.964484 13.480731,47.009646 13.65625,47.09375 C 13.656133,47.104166 13.656133,47.114584 13.65625,47.125 C 14.309495,47.424689 15.054155,47.480774 15.78125,47.3125 C 15.78125,47.3125 20.169836,46.34938 23.65625,42.6875 C 24.325463,43.300444 24.981973,43.957742 25.6875,44.4375 C 26.772902,45.175573 27.856494,45.771377 28.75,46.21875 C 29.58469,46.636674 30.199273,46.970487 31.09375,47.1875 C 31.104166,47.187617 31.114584,47.187617 31.125,47.1875 C 32.876917,47.606763 34.618316,46.475474 35.03125,44.75 C 35.417426,43.136336 34.489945,41.513864 32.9375,40.96875 L 32.9375,40.9375 C 32.797622,40.869697 32.755197,40.869844 32.6875,40.84375 C 32.616623,40.81643 32.549248,40.765397 32.4375,40.71875 C 32.219019,40.62755 31.93693,40.499888 31.6875,40.375 C 31.011716,40.036639 30.148928,39.557522 29.375,39.03125 C 28.598263,38.503069 27.867449,37.920903 27.46875,37.46875 C 27.109762,37.061632 27.007769,36.527449 27.0625,36.875 C 27.056816,36.821442 27.039568,36.77193 27.03125,36.71875 C 27.032783,36.709777 27.029726,36.696495 27.03125,36.6875 C 27.522315,33.788235 27.530735,29.772919 27.5,25.875 C 27.494424,25.167757 27.475824,24.488184 27.46875,23.8125 C 33.471075,22.778432 37.504187,19.390621 39.78125,15.875 C 41.532909,13.170565 42.140705,10.01402 42.46875,7.5 C 42.799233,4.9672951 42.8125,2.9375 42.8125,2.9375 C 42.8235,2.1596652 42.538444,1.4779105 42.09375,0.90625 C 42.093867,0.89583366 42.093867,0.88541634 42.09375,0.875 C 41.856634,0.58026888 41.552522,0.2937854 41.15625,0.0625 C 40.993446,-0.032519813 40.969097,-0.019136563 41.0625,0.03125 C 41.062617,0.020833661 41.062617,0.010416339 41.0625,-1.3066335e-17 C 40.890191,-0.089251933 40.685686,-0.17014284 40.40625,-0.25 C 39.831428,-0.4040675 39.231071,-0.40406689 38.65625,-0.25 C 38.376814,-0.17014284 38.172309,-0.089251933 38,0 C 37.999883,0.010416339 37.999883,0.020833661 38,0.03125 C 38.093403,-0.019136563 38.069054,-0.032519813 37.90625,0.0625 C 37.509973,0.29378667 37.205864,0.58027139 36.96875,0.875 C 36.968633,0.88541634 36.968633,0.89583366 36.96875,0.90625 C 36.524056,1.4779105 36.239,2.1909152 36.25,2.96875 C 36.25,2.96875 36.270961,4.5484479 36,6.625 C 35.733866,8.6645614 35.034034,11.229753 34.3125,12.34375 C 32.842602,14.613167 30.903698,16.444258 27.4375,17.25 C 27.462814,16.459349 27.290371,15.660208 26.75,15.03125 C 26.095751,14.269745 25.153408,13.841479 24.15625,13.875 C 24.145834,13.874883 24.135416,13.874883 24.125,13.875 C 22.56645,13.935646 21.264162,15.114008 21.03125,16.65625 C 20.981977,16.940787 20.989725,17.25072 20.96875,17.53125 C 18.208131,16.988504 16.179737,15.210742 14.5,11.71875 C 12.381076,7.3137366 12.6875,3.21875 12.6875,3.21875 C 12.796901,2.206018 12.412548,1.2459433 11.71875,0.5625 C 11.024952,-0.12094344 10.058802,-0.46655939 9.0625,-0.34375 C 9.0520837,-0.34386682 9.0416663,-0.34386682 9.03125,-0.34375 C 9.4485881,-0.39921134 9.4016396,-0.43764122 8.875,-0.34375 z M 24.34375,3.9375 C 24.319506,3.9375 24.173912,3.9449543 23.90625,3.96875 C 21.42173,4.1896288 19.46875,6.2903985 19.46875,8.8125 C 19.46875,11.481553 21.674697,13.6875 24.34375,13.6875 C 27.012803,13.6875 29.25,11.496675 29.25,8.8125 C 29.25,6.1283248 27.012803,3.9374999 24.34375,3.9375 z" transform="translate(-0.461784,0.552099)"/></g><g id="layer1" style="display:inline"><path id="path1395" d="M 23.797811,17.732005 C 23.46144,19.674457 24.184247,32.57449 23.329006,37.045324 C 21.197006,43.497063 14.682811,44.680774 14.682811,44.680774 M 23.360254,37.731367 C 23.561959,41.027502 30.376898,44.3094 31.415912,44.561479" style="fill:none;stroke:#2e2eff;stroke-width:3.75;stroke-linecap:round;stroke-linejoin:round;stroke-miterlimit:4;stroke-dasharray:none;stroke-opacity:1"/><path style="fill:none;stroke:#2e2eff;stroke-width:3.75;stroke-linecap:round;stroke-linejoin:round;stroke-miterlimit:4;stroke-dasharray:none;stroke-opacity:1" id="path1391" d="M 39.056097,3.4894952 C 39.056097,3.4894952 39.115404,10.75545 36.592262,14.651 C 34.292243,18.202065 30.399605,21.578243 23.304352,21.554256 C 17.816838,21.945927 13.632929,18.95855 11.092691,13.677671 C 8.5673909,8.4278472 8.9899956,3.4797832 8.9899956,3.4797832"/><path style="fill:#2e2eff;fill-opacity:1;fill-rule:nonzero;stroke:none;stroke-width:21.60000038;stroke-linecap:round;stroke-linejoin:round;stroke-miterlimit:4;stroke-dasharray:none;stroke-opacity:1" id="path2289" d="M 145.80913 68.150551 A 15.390964 15.390964 0 1 1 115.0272,68.150551 A 15.390964 15.390964 0 1 1 145.80913 68.150551 z" transform="matrix(0.225896,0,0,0.225896,-5.56725,-6.023737)"/></g></svg>